<?xml version="1.0" encoding="utf-8"?>
<!-- Generator: Adobe Illustrator 16.0.0, SVG Export Plug-In . SVG Version: 6.00 Build 0)  -->
<!DOCTYPE svg PUBLIC "-//W3C//DTD SVG 1.1//EN" "http://www.w3.org/Graphics/SVG/1.1/DTD/svg11.dtd">
<svg version="1.1" id="Layer_1" xmlns="http://www.w3.org/2000/svg" xmlns:xlink="http://www.w3.org/1999/xlink" x="0px" y="0px"
	 width="51.25px" height="51.5px" viewBox="6.25 6 51.25 51.5" enable-background="new 6.25 6 51.25 51.5" xml:space="preserve">
<path d="M51.895,17.946c-0.371-0.524-0.758-1.035-1.17-1.527C46.25,11.05,39.518,7.626,32,7.626c-0.014,0-0.025,0.001-0.037,0.001
	c-0.008,0-0.014-0.001-0.021-0.001c-0.027,0-0.055,0.003-0.084,0.003c-7.461,0.043-14.135,3.457-18.582,8.79
	c-0.41,0.493-0.799,1.003-1.17,1.527C9.289,21.921,7.627,26.768,7.627,32c0,5.232,1.662,10.08,4.479,14.055
	c0.371,0.523,0.76,1.034,1.17,1.526c4.447,5.333,11.121,8.747,18.582,8.79c0.029,0,0.057,0.003,0.084,0.003
	c0.008,0,0.014-0.001,0.021-0.001c0.012,0,0.023,0.001,0.037,0.001c7.518,0,14.25-3.423,18.725-8.792
	c0.41-0.492,0.799-1.004,1.17-1.527c2.816-3.976,4.479-8.824,4.479-14.056C56.373,26.769,54.711,21.921,51.895,17.946z
	 M24.875,10.796c-2.24,2.161-4.102,5.32-5.385,9.111c-1.719-0.642-3.266-1.415-4.6-2.289C17.506,14.512,20.945,12.12,24.875,10.796z
	 M13.717,19.147c1.516,1.012,3.268,1.897,5.205,2.626c-0.836,3.054-1.316,6.444-1.334,10.021H9.631
	C9.674,27.089,11.188,22.735,13.717,19.147z M9.705,33.794h7.922c0.129,2.994,0.584,5.835,1.293,8.435
	c-1.938,0.729-3.689,1.613-5.203,2.625C11.475,41.674,10.031,37.893,9.705,33.794z M14.896,46.378
	c1.334-0.872,2.877-1.644,4.592-2.285c1.283,3.792,3.146,6.949,5.387,9.11C20.945,51.88,17.512,49.484,14.896,46.378z M31,54.302
	c-4.104-0.562-7.646-4.772-9.654-10.833C24.241,42.6,27.518,42.075,31,41.99V54.302z M31,39.992
	c-3.672,0.088-7.133,0.656-10.215,1.601c-0.631-2.397-1.035-5.026-1.156-7.798H31V39.992z M31,31.794H19.588
	c0.018-3.359,0.455-6.532,1.207-9.384c3.078,0.943,6.537,1.511,10.205,1.598V31.794z M31,22.01c-3.48-0.085-6.756-0.609-9.648-1.477
	C23.359,14.474,26.898,10.261,31,9.698V22.01z M54.367,31.794h-8.072c-0.018-3.562-0.492-6.938-1.322-9.981
	c1.98-0.736,3.769-1.635,5.31-2.665C52.811,22.736,54.324,27.089,54.367,31.794z M49.107,17.62
	c-1.361,0.891-2.943,1.676-4.703,2.325c-1.295-3.843-3.184-7.04-5.459-9.209C42.949,12.047,46.451,14.466,49.107,17.62z M33,9.713
	c4.059,0.627,7.555,4.832,9.541,10.85c-2.865,0.849-6.104,1.363-9.541,1.447V9.713z M33,24.009
	c3.625-0.086,7.045-0.642,10.096-1.565c0.748,2.844,1.182,6.005,1.199,9.351H33V24.009z M33,33.794h11.254
	c-0.121,2.761-0.523,5.377-1.148,7.765c-3.055-0.925-6.479-1.48-10.104-1.567L33,33.794L33,33.794z M33,54.287V41.991
	c3.439,0.084,6.678,0.598,9.547,1.448C40.559,49.458,37.059,53.66,33,54.287z M38.945,53.266c2.275-2.17,4.168-5.363,5.463-9.209
	c1.756,0.649,3.336,1.433,4.695,2.322C46.447,49.532,42.949,51.953,38.945,53.266z M50.283,44.855
	c-1.541-1.031-3.33-1.932-5.311-2.668c0.702-2.586,1.153-5.414,1.28-8.393h8.041C53.969,37.893,52.527,41.675,50.283,44.855z"/>
</svg>
