<?xml version="1.0" encoding="iso-8859-1"?>
<!-- Generator: Adobe Illustrator 18.0.0, SVG Export Plug-In . SVG Version: 6.00 Build 0)  -->
<!DOCTYPE svg PUBLIC "-//W3C//DTD SVG 1.1//EN" "http://www.w3.org/Graphics/SVG/1.1/DTD/svg11.dtd">
<svg version="1.1" id="Capa_1" xmlns="http://www.w3.org/2000/svg" xmlns:xlink="http://www.w3.org/1999/xlink" x="0px" y="0px"
	 viewBox="0 0 85.733 85.686" style="enable-background:new 0 0 85.733 85.686;" xml:space="preserve">
<path d="M82.311,26.156C77.791,15.618,70.11,7.954,59.484,3.422C54.173,1.157,48.656,0,42.843,0c-5.812,0-11.335,1.146-16.64,3.422
	c-10.538,4.52-18.3,12.179-22.828,22.734C1.106,31.444,0,36.984,0,42.796c0,5.813,1.106,11.399,3.375,16.688
	c4.528,10.555,12.29,18.26,22.828,22.781c5.305,2.276,10.828,3.421,16.64,3.421c5.813,0,11.33-1.157,16.641-3.421
	c10.626-4.532,18.307-12.244,22.827-22.781c2.276-5.306,3.422-10.875,3.422-16.688C85.733,36.984,84.587,31.462,82.311,26.156z
	 M28.593,7.969c-3.703,4.687-6.421,10.64-8.156,17.859H9.234C13.359,17.812,20.297,11.39,28.593,7.969z M5.203,42.796
	c0-4.078,0.656-8.015,1.922-11.812h12.281c-0.609,3.984-0.891,7.922-0.891,11.812c0,3.844,0.282,7.735,0.891,11.719H7.031
	C5.812,50.718,5.203,46.781,5.203,42.796z M9.234,59.671h11.203c1.735,7.359,4.453,13.406,8.156,18.047
	C20.156,74.202,13.218,67.78,9.234,59.671z M40.218,80.061c-3.047-0.89-5.906-3.14-8.484-6.796
	c-2.578-3.657-4.547-8.203-5.906-13.594h14.39V80.061z M40.218,54.515H24.656c-0.61-4.172-0.938-8.063-0.938-11.719
	c0-3.937,0.328-7.875,1.032-11.812h15.468V54.515z M40.218,25.828h-14.39c1.453-5.344,3.433-9.836,6-13.453
	c2.589-3.649,5.343-5.906,8.39-6.75V25.828z M76.499,25.828H65.296c-1.734-7.219-4.453-13.172-8.156-17.859
	C65.437,11.39,72.374,17.812,76.499,25.828z M45.515,5.625c3.047,0.844,5.801,3.101,8.39,6.75c2.568,3.617,4.547,8.109,6,13.453
	h-14.39V5.625z M45.515,30.984h15.468c0.704,3.937,1.032,7.875,1.032,11.812c0,3.656-0.328,7.547-0.938,11.719H45.515V30.984z
	 M45.515,80.061v-20.39h14.39c-1.406,5.391-3.401,9.919-5.953,13.594C51.394,76.949,48.609,79.218,45.515,80.061z M57.14,77.718
	c3.703-4.641,6.422-10.688,8.156-18.047h11.203C72.515,67.78,65.577,74.202,57.14,77.718z M78.702,54.515H66.327
	c0.61-3.984,0.891-7.875,0.891-11.719c0-3.89-0.281-7.828-0.891-11.812h12.281c1.266,3.797,1.922,7.734,1.922,11.812
	C80.53,46.781,79.921,50.718,78.702,54.515z"/>
<g>
</g>
<g>
</g>
<g>
</g>
<g>
</g>
<g>
</g>
<g>
</g>
<g>
</g>
<g>
</g>
<g>
</g>
<g>
</g>
<g>
</g>
<g>
</g>
<g>
</g>
<g>
</g>
<g>
</g>
</svg>
