<?xml version="1.0" encoding="utf-8"?>
<!-- Generator: Adobe Illustrator 16.0.0, SVG Export Plug-In . SVG Version: 6.00 Build 0)  -->
<!DOCTYPE svg PUBLIC "-//W3C//DTD SVG 1.1//EN" "http://www.w3.org/Graphics/SVG/1.1/DTD/svg11.dtd">
<svg version="1.1" id="Layer_1" xmlns="http://www.w3.org/2000/svg" xmlns:xlink="http://www.w3.org/1999/xlink" x="0px" y="0px"
	 width="1000px" height="1000px" viewBox="0 0 1000 1000" enable-background="new 0 0 1000 1000" xml:space="preserve">
<path fill="#FFFFFF" d="M0,499.968c0-138.012,48.825-255.843,146.475-353.493S361.956,0,499.968,0
	C637.98,0,755.811,48.825,853.461,146.475s146.475,215.481,146.475,353.493c0,138.013-48.824,255.843-146.475,353.493
	c-97.649,97.65-215.48,146.475-353.493,146.475c-138.012,0-255.843-48.824-353.493-146.475S0,637.98,0,499.968L0,499.968z
	 M54.684,499.968c0,122.389,43.617,227.199,130.851,314.434c87.234,87.233,192.045,130.851,314.433,130.851
	c122.389,0,227.199-43.617,314.434-130.851c87.233-87.234,130.851-192.045,130.851-314.434
	c0-122.388-43.617-227.199-130.851-314.433C727.167,98.301,622.355,54.684,499.968,54.684S272.769,98.301,185.535,185.535
	C98.301,272.769,54.684,377.58,54.684,499.968L54.684,499.968z M195.3,607.383c-2.604-2.604-2.604-5.208,0-7.812
	c5.208-5.208,11.718-7.161,19.53-5.859s12.369,2.604,13.671,3.906c9.114,3.906,19.204,12.694,30.271,26.366
	c11.067,13.671,19.855,23.11,26.366,28.318c31.248,26.04,63.147,27.993,95.697,5.859c2.604-9.114,6.835-16.926,12.694-23.437
	c5.858-6.51,11.392-11.066,16.601-13.671c5.209-2.604,14.323-6.51,27.342-11.718c-42.966-3.906-77.794-11.393-104.485-22.46
	s-47.849-25.063-63.473-41.989c-20.832-23.436-33.527-54.033-38.084-91.791c-4.558-37.758-1.628-72.261,8.789-103.509
	c7.812-19.53,18.879-37.107,33.201-52.731c-10.416-32.55-8.463-69.657,5.859-111.321c41.665,2.604,79.422,16.926,113.274,42.966
	c65.101-16.926,132.805-17.577,203.112-1.953c9.114-6.51,23.11-14.647,41.989-24.413c18.878-9.765,42.64-15.299,71.285-16.601
	c5.208,14.322,8.788,31.248,10.741,50.778c1.954,19.53,0.978,37.758-2.929,54.684c29.946,31.248,45.57,72.912,46.872,124.992
	c0,41.664-7.161,76.167-21.482,103.509c-14.322,27.342-39.711,50.127-76.168,68.354c-24.737,11.719-57.287,18.88-97.649,21.483
	c18.228,9.114,31.573,18.554,40.037,28.319c8.463,9.765,13.997,25.063,16.601,45.895v61.521c0,0,0.651,19.855,1.953,59.566
	c3.906,6.51,8.463,12.044,13.671,16.602c5.208,4.557,9.766,7.812,13.671,9.765c3.906,1.953,5.208,4.883,3.906,8.789
	s-6.51,5.859-15.624,5.859c-22.134,0-39.711-7.812-52.731-23.437c-3.905-6.51-5.858-14.322-5.858-23.436v-93.744
	c0-10.416-2.604-17.902-7.812-22.46s-10.416-7.487-15.624-8.789v123.039c0,22.134,2.604,36.456,7.812,42.966
	s8.463,13.02,9.765,19.53c1.302,1.302,0.326,2.278-2.929,2.929s-8.788-0.325-16.602-2.929
	c-16.926-3.906-28.644-12.695-35.153-26.366c-6.51-13.672-9.766-28.319-9.766-43.943V667.926h-25.389v121.086
	c0,15.624-3.255,30.598-9.765,44.919c-9.114,18.229-26.04,27.993-50.778,29.295c-3.906-1.302-5.859-2.604-5.859-3.905
	c1.303-1.303,5.208-7.812,11.719-19.53c1.302-2.604,2.93-7.812,4.883-15.624c1.953-7.812,2.93-16.926,2.929-27.342V673.785
	c-5.208,1.302-10.091,4.231-14.647,8.789c-4.558,4.557-6.837,12.044-6.837,22.46v93.744c0,9.113-1.952,16.926-5.858,23.436
	c-11.718,15.624-29.295,23.437-52.731,23.437c-9.113,0-14.321-1.953-15.624-5.859c-1.302-2.604-0.976-4.883,0.978-6.836
	s4.883-4.232,8.789-6.836c3.906-2.604,6.51-4.558,7.812-5.859c5.208-3.906,9.114-9.114,11.718-15.624
	c3.906-5.208,4.883-18.879,2.93-41.013s-2.279-36.456-0.978-42.966c-33.852,11.718-68.354,5.858-103.509-17.577
	c-10.416-10.416-20.832-25.39-31.248-44.919C234.36,643.839,218.736,626.913,195.3,607.383L195.3,607.383z"/>
</svg>
